<svg xmlns="http://www.w3.org/2000/svg" viewBox="0 0 192.117 41.039">
<!-- Логотип OZON — контуры узлов 137:265/266/264/267 (группа 137:263), извлечены из геометрии
     Figma (fillGeometry) взамен текстовой имитации .ozon-txt по прямой просьбе клиента -->
<g fill="#fff">
<path transform="translate(0 0)" d="M20.9738 5.51691e-06C16.8285 -0.00296986 12.7754 1.19763 9.32707 3.44997C5.87873 5.7023 3.19004 8.90521 1.60102 12.6536C0.0119908 16.4021 -0.405998 20.5277 0.399913 24.5087C1.20582 28.4897 3.19944 32.1474 6.12863 35.019C9.05783 37.8907 12.791 39.8475 16.8561 40.6419C20.9213 41.4363 25.1357 41.0326 28.9664 39.4819C32.7972 37.9312 36.0723 35.3031 38.3774 31.9301C40.6826 28.557 41.9143 24.5904 41.9169 20.5319L41.9169 20.5044C41.9169 15.0663 39.7104 9.85091 35.7828 6.00559C31.8552 2.16028 26.5282 5.51691e-06 20.9738 5.51691e-06ZM32.1446 20.5044C32.1429 23.4064 30.964 26.189 28.8671 28.2402C26.7702 30.2914 23.9271 31.4433 20.9629 31.4424C17.9987 31.4416 15.1563 30.2882 13.0606 28.2358C10.9649 26.1834 9.78761 23.4002 9.78761 20.4981C9.78761 17.596 10.9649 14.8127 13.0606 12.7604C15.1563 10.708 17.9987 9.55457 20.9629 9.55374C23.9271 9.55291 26.7702 10.7047 28.8671 12.7559C30.964 14.8071 32.1429 17.5897 32.1446 20.4918L32.1446 20.5044Z"/>
<path transform="translate(45.353 0.910)" d="M7.87288 0.0100338C4.84003 0.0100338 2.27082 2.71101 2.90095 5.77814C3.36203 8.03522 5.5214 9.57505 7.87288 9.57505L21.5181 9.57505L0.283071 37.0061C0.126429 37.2087 0.0305424 37.4499 0.00617146 37.7029C-0.0181995 37.9558 0.0299146 38.2104 0.145106 38.438C0.260297 38.6656 0.438005 38.8573 0.658295 38.9916C0.878585 39.1258 1.13274 39.1973 1.39222 39.198L34.7075 39.198C37.0538 39.198 39.2183 37.6582 39.6743 35.4011C39.8227 34.7044 39.8107 33.9842 39.6391 33.2926C39.4676 32.6011 39.1408 31.9556 38.6826 31.4032C38.2243 30.8508 37.6461 30.4053 36.99 30.0991C36.3338 29.7929 35.6162 29.6336 34.8893 29.633L18.265 29.633L39.4821 2.21445C39.6411 2.0099 39.7385 1.76593 39.7634 1.51008C39.7883 1.25422 39.7396 0.996643 39.623 0.766398C39.5063 0.536152 39.3263 0.342394 39.1032 0.206979C38.88 0.0715638 38.6227 -0.000124193 38.3602 1.61509e-07L7.87288 0.0100338Z"/>
<path transform="translate(87.925 0)" d="M29.3449 0C13.1355 0 0 9.18383 0 20.5169C0 31.85 13.1355 41.0363 29.3449 41.0363C45.5542 41.0363 58.6872 31.85 58.6872 20.5169C58.6872 9.18383 45.5517 0 29.3449 0ZM29.3449 31.4612C18.151 31.4612 9.7748 25.6931 9.7748 20.5169C9.7748 15.3406 18.151 9.57255 29.3449 9.57255C40.5388 9.57255 48.9124 15.3406 48.9124 20.5169C48.9124 25.6931 40.5644 31.4637 29.3449 31.4637L29.3449 31.4612Z"/>
<path transform="translate(153.600 0.918)" d="M38.5177 4.79003L38.5177 37.8187C38.5162 38.0778 38.4406 38.3313 38.2995 38.5504C38.1584 38.7696 37.9574 38.9457 37.7192 39.0587C37.4811 39.1718 37.2154 39.2173 36.9522 39.19C36.6891 39.1628 36.439 39.0639 36.2303 38.9046L9.78505 18.3401L9.78505 34.4055C9.78505 35.6759 9.26958 36.8942 8.35206 37.7925C7.43453 38.6908 6.1901 39.1955 4.89252 39.1955C3.59495 39.1955 2.35051 38.6908 1.43299 37.7925C0.515464 36.8942 8.85325e-06 35.6759 8.85325e-06 34.4055L8.85325e-06 1.38685C-0.000934485 1.12653 0.0735268 0.871286 0.214746 0.650716C0.355966 0.430146 0.558156 0.25329 0.797876 0.140666C1.0376 0.0280422 1.30501 -0.0157365 1.56912 0.0144075C1.83322 0.0445516 2.08319 0.147386 2.29002 0.310977L28.7327 20.8554L28.7327 4.79003C28.7327 3.51964 29.2481 2.30128 30.1657 1.40297C31.0832 0.504665 32.3276 7.1278e-15 33.6252 0C34.9228 7.1278e-15 36.1672 0.504665 37.0847 1.40297C38.0023 2.30128 38.5177 3.51964 38.5177 4.79003Z"/>
</g>
</svg>
